<?xml version="1.0" standalone="no"?><!DOCTYPE svg PUBLIC "-//W3C//DTD SVG 1.1//EN" "http://www.w3.org/Graphics/SVG/1.1/DTD/svg11.dtd"><svg t="1741588751461" class="icon" viewBox="0 0 1024 1024" version="1.1" xmlns="http://www.w3.org/2000/svg" p-id="1385" xmlns:xlink="http://www.w3.org/1999/xlink" width="200" height="200"><path d="M1004.453508 466.378607L557.453436 19.378534a65.904677 65.904677 0 0 0-93.226325 0L360.379255 123.22639l78.125836 78.125836a95.977685 95.977685 0 0 1 128.034232 128.034232l127.970247 127.970247a95.977685 95.977685 0 1 1-45.237482 45.237482l-127.970247-127.970247A100.392659 100.392659 0 0 1 511.896028 378.527032v266.88195a95.977685 95.977685 0 1 1-63.985124 0V378.527032a95.977685 95.977685 0 0 1-54.643295-131.873339L315.141773 168.527857 19.338547 464.331083a66.032647 66.032647 0 0 0 0 93.29031l447.000073 447.000073a65.904677 65.904677 0 0 0 93.226325 0l444.888563-444.888564a66.032647 66.032647 0 0 0 0-93.29031z" fill="#ffffff" p-id="1386"></path></svg>