<?xml version="1.0" standalone="no"?><!DOCTYPE svg PUBLIC "-//W3C//DTD SVG 1.1//EN" "http://www.w3.org/Graphics/SVG/1.1/DTD/svg11.dtd"><svg t="1745074747244" class="icon" viewBox="0 0 1024 1024" version="1.1" xmlns="http://www.w3.org/2000/svg" p-id="8116" xmlns:xlink="http://www.w3.org/1999/xlink" width="200" height="200"><path d="M566.656 800h333.088a60.48 60.48 0 0 0 52.192-30.4 61.216 61.216 0 0 0 0-60.8L728.192 317.952a59.84 59.84 0 0 0-104.352 0l-57.216 100-111.808-195.552a59.872 59.872 0 0 0-104.384 0l-278.4 486.4a61.184 61.184 0 0 0 22.08 83.04c9.152 5.344 19.52 8.16 30.112 8.16h209.088c82.848 0 143.936-36.704 185.952-108.32l102.08-178.304 54.656-95.424 164.064 286.624h-218.72L566.624 800z m-236.736-95.52l-145.92-0.032 218.752-382.144 109.12 191.04-73.056 127.744c-27.936 46.464-59.648 63.392-108.896 63.392z" fill="#00DC82" p-id="8117"></path></svg>