<?xml version="1.0" standalone="no"?><!DOCTYPE svg PUBLIC "-//W3C//DTD SVG 1.1//EN" "http://www.w3.org/Graphics/SVG/1.1/DTD/svg11.dtd"><svg t="1741588809064" class="icon" viewBox="0 0 1024 1024" version="1.1" xmlns="http://www.w3.org/2000/svg" p-id="2714" xmlns:xlink="http://www.w3.org/1999/xlink" width="200" height="200"><path d="M512 0c282.752 0 512 229.248 512 512s-229.248 512-512 512S0 794.752 0 512 229.248 0 512 0zM410.24 682.581333c7.466667 27.52 6.656 53.248-1.024 76.458667l-2.773333 7.68c-1.024 2.602667-2.218667 5.12-3.328 7.509333-5.973333 12.373333-13.909333 23.893333-23.68 34.56-29.781333 32.384-71.338667 44.672-89.173334 34.346667-19.2-11.178667-9.642667-56.96 24.917334-93.44 37.162667-39.168 90.453333-64.384 90.453333-64.384v-0.128l4.608-2.602667z m422.869333-463.402666c-23.125333-91.008-173.952-120.917333-316.672-70.186667-84.864 30.165333-176.810667 77.568-242.901333 139.392C194.901333 361.813333 182.4 425.813333 187.562667 452.565333c18.218667 94.336 147.498667 156.032 200.661333 201.813334v0.256c-15.658667 7.68-130.389333 65.237333-157.269333 124.8-28.8 62.72 4.48 107.562667 26.24 113.28 67.2 18.602667 136.32-15.36 173.44-70.357334 35.84-53.802667 32.682667-122.922667 17.237333-156.842666 21.162667-5.76 46.08-8.32 78.08-4.437334 89.642667 10.24 107.562667 66.56 103.68 89.6-3.84 22.997333-22.314667 36.437333-28.757333 40.277334-6.4 3.882667-8.32 5.12-7.722667 7.722666 0.64 3.84 3.882667 3.84 8.96 3.2 7.04-1.28 46.762667-19.2 48.682667-62.762666 1.92-55.04-50.602667-116.437333-144-115.2-38.4 0.682667-62.762667 3.882667-80 10.922666a15.445333 15.445333 0 0 0-4.48-4.48c-57.6-62.08-164.48-105.6-160-188.16 1.28-30.08 12.16-109.397333 204.8-205.397333 158.08-78.762667 284.202667-56.96 305.962666-8.96 31.274667 68.437333-67.242667 195.84-231.722666 214.357333-62.72 7.04-95.36-17.237333-103.722667-26.24-8.917333-9.6-10.197333-10.24-13.397333-8.277333-5.12 2.56-1.92 10.88 0 16 5.12 12.8 24.96 35.2 59.562666 46.72 30.037333 9.6 103.68 15.317333 192-19.2 99.157333-38.357333 176.597333-145.28 154.197334-234.88l3.114666 2.858667z" fill="#ffffff" p-id="2715"></path></svg>