<svg t="1741592174723" class="icon" viewBox="0 0 1024 1024" version="1.1" xmlns="http://www.w3.org/2000/svg" p-id="12324" width="200" height="200"><path d="M512 0l452.522667 256v512L512 1024 59.477333 768V256z" fill="#FFFFFF" p-id="12325" data-spm-anchor-id="a313x.search_index.0.i17.7ca93a8178ygVv" class="selected"></path><path d="M883.712 750.336l-356.778667 201.813333V794.965333L749.226667 672.682667l134.485333 77.653333z m24.405333-22.101333V306.176l-130.56 75.349333V652.8l130.56 75.434667z m-769.28 22.101333l356.778667 201.813333V794.965333L273.322667 672.682667l-134.485334 77.653333z m-24.405333-22.101333V306.176l130.56 75.349333V652.8l-130.56 75.434667zM129.706667 278.869333L495.616 71.850667v151.978666L261.205333 352.768l-1.792 1.024-129.706666-74.922667z m763.136 0L526.933333 71.850667v151.978666l234.410667 128.938667 1.792 1.024 129.706667-74.922667z" fill="#8ED6FB" p-id="12326"></path><path d="M495.616 759.210667l-219.306667-120.576v-238.933334l219.306667 126.634667v232.874667z m31.317333 0l219.306667-120.576v-238.933334l-219.306667 126.634667v232.874667z m-15.616-242.005334zM291.157333 372.053333l220.16-121.088 220.16 121.088-220.16 127.146667-220.16-127.146667z" fill="#1C78C0" p-id="12327"></path></svg>